<?xml version="1.0" encoding="utf-8"?>
<svg xmlns="http://www.w3.org/2000/svg" viewBox="-374.6759 -30.877 1896.6263 587.6637" width="1896.63px" height="587.664px">
  <path fill="rgb(2,49,115)" d="M -186.01 35.821 C -159.98 33.796 -120.79 35.948 -94.576 36.046 C -61.799 36.168 -51.578 93.327 -98.995 94.747 C -126.55 95.572 -168.67 92.195 -195.28 95.633 C -217.28 98.53 -238.24 106.745 -256.35 119.565 C -288.48 142.472 -307.6 175.15 -314.09 213.858 C -319.85 249.616 -311.21 286.198 -290.06 315.602 C -269.51 344.081 -238.47 363.21 -203.8 368.768 C -188.48 371.222 -144.71 372.789 -128.89 367.627 C -123.51 365.871 -125.05 352.414 -124.49 347.266 C -121.88 323.147 -135.5 325.27 -154.28 325.194 C -195.62 328.711 -236.5 298.626 -236.01 253.33 C -235.72 233.421 -227.43 214.466 -213 200.747 C -202.97 190.923 -190.28 184.251 -176.5 181.554 C -163.69 178.995 -146.86 179.64 -133.61 179.638 L -79.309 179.696 C -29.794 179.764 19.817 179.674 69.331 179.706 C 102.552 179.728 134.134 194.42 157.056 218.556 C 179.122 242.062 191.019 273.329 190.158 305.559 C 189.462 328.237 182.945 350.356 171.234 369.79 C 120.391 454.68 23.814 414.972 5.692 434.012 C -1.335 441.395 1.593 482.564 1.55 494.889 C 1.679 512.272 5.713 536.167 -7.854 548.603 C -14.121 554.319 -22.438 557.25 -30.904 556.727 C -38.412 556.272 -45.856 553.18 -50.875 547.47 C -53.963 543.943 -56.045 539.65 -56.903 535.041 C -59.103 523.246 -57.897 506.242 -57.992 493.914 C -58.335 449.467 -64.974 400.983 -17.07 377.99 C 24.34 358.114 72.868 386.516 109.716 354.084 C 123.575 341.951 131.978 324.76 133.04 306.371 C 134.041 289.318 128.202 272.569 116.817 259.833 C 91.832 231.874 60.268 237.342 26.188 237.328 L -50.629 237.313 L -119.25 237.312 C -131.43 237.293 -144.66 237.066 -156.69 237.463 C -189.73 238.233 -183.34 272.173 -151.9 268.709 C -125.14 265.535 -92.084 272.409 -76.888 297.17 C -61.066 322.952 -61.702 380.202 -82.265 403.495 C -106.31 430.731 -135.03 426.103 -166.7 426.972 C -220.96 428.462 -267.85 416.393 -309.32 379.992 C -347.39 346.177 -370.7 298.807 -374.29 248.018 C -377.74 193.78 -357.87 141.851 -322.12 101.336 C -285.76 60.123 -240.36 39.237 -186.01 35.821 Z" style="stroke-width: 1;" transform="matrix(1, 0, 0, 1, 0, 5.684341886080802e-14)"/>
  <path fill="rgb(254,78,1)" d="M 357.639 242.69 C 376.995 241.598 384.771 247.248 397.002 260.801 L 397.249 245.515 L 425.381 245.403 L 425.387 308.629 C 425.458 326.39 426.691 346.543 423.315 363.776 C 415.466 403.839 366.556 410.772 334.602 397.523 C 326.354 394.104 320.913 389.455 314.662 383.387 L 320.108 377.627 C 323.867 373.549 328.676 368.957 332.657 364.981 C 333.004 365.37 333.357 365.753 333.716 366.13 C 347.243 380.443 371.847 387.361 388.112 372.188 C 397.319 363.599 396.548 351.307 396.394 339.624 C 388.248 348.31 380.166 354.181 368.141 356.036 C 316.5 363.972 295.111 298.871 321.375 262.582 C 330.321 250.221 343.006 244.724 357.639 242.69 Z" style="stroke-width: 1;" transform="matrix(1, 0, 0, 1, 0, 5.684341886080802e-14)"/>
  <path fill="rgb(250,250,250)" d="M 362.746 268.663 C 369.541 268.295 374.905 268.702 381.093 271.96 C 388.008 275.603 393.166 281.875 395.408 289.362 C 401.097 308.409 391.973 325.209 372.76 330.331 C 329.972 334.306 326.871 277.64 362.746 268.663 Z" style="stroke-width: 1;" transform="matrix(1, 0, 0, 1, 0, 5.684341886080802e-14)"/>
  <path fill="rgb(2,49,115)" d="M 1032.58 242.652 C 1033.45 242.543 1034.34 242.483 1035.22 242.474 C 1106.31 241.786 1106.88 362.453 1035.29 360.884 C 1019.05 360.528 1011.25 354.264 1000.53 343.144 L 1000.45 370.139 L 1000.39 402.404 L 972.525 402.426 L 972.695 245.454 L 1000.39 245.407 L 1000.36 261.199 C 1010.85 249.4 1016.83 245.08 1032.58 242.652 Z" style="stroke-width: 1;" transform="matrix(1, 0, 0, 1, 0, 5.684341886080802e-14)"/>
  <path fill="rgb(250,250,250)" d="M 1028.8 268.715 C 1067.46 270.441 1070.99 326.937 1031.65 335.416 C 991.885 336.338 987.065 274.459 1028.8 268.715 Z" style="stroke-width: 1;" transform="matrix(1, 0, 0, 1, 0, 5.684341886080802e-14)"/>
  <path fill="rgb(254,78,1)" d="M 887.315 242.393 C 920.435 238.894 950.065 263.063 953.295 296.214 C 956.515 329.366 932.105 358.792 898.925 361.742 C 866.135 364.658 837.125 340.591 833.935 307.825 C 830.755 275.059 854.575 245.852 887.315 242.393 Z" style="stroke-width: 1;" transform="matrix(1, 0, 0, 1, 0, 5.684341886080802e-14)"/>
  <path fill="rgb(250,250,250)" d="M 890.905 268.718 C 897.975 268.549 903.195 269.468 909.345 273.105 C 916.915 277.639 922.315 285.068 924.295 293.675 C 929.105 313.92 918.245 330.724 898.145 335.321 C 853.085 336.43 850.075 275.224 890.905 268.718 Z" style="stroke-width: 1;" transform="matrix(1, 0, 0, 1, 0, 5.684341886080802e-14)"/>
  <path fill="rgb(2,49,115)" d="M 1156.21 242.575 C 1188.88 238.838 1218.45 262.124 1222.49 294.757 C 1226.53 327.39 1203.52 357.178 1170.91 361.51 C 1137.89 365.899 1107.63 342.519 1103.56 309.463 C 1099.46 276.406 1123.12 246.361 1156.21 242.575 Z" style="stroke-width: 1;" transform="matrix(1, 0, 0, 1, 0, 5.684341886080802e-14)"/>
  <path fill="rgb(250,250,250)" d="M 1161.16 268.691 C 1199.36 267.243 1208.89 327.155 1165.88 335.303 C 1125.41 336.991 1118.01 275.457 1161.16 268.691 Z" style="stroke-width: 1;" transform="matrix(1, 0, 0, 1, 0, 5.684341886080802e-14)"/>
  <path fill="rgb(254,78,1)" d="M 491.976 242.76 C 493.262 242.61 494.555 242.525 495.849 242.506 C 539.79 241.852 548.462 269.397 546.653 306.872 C 545.88 322.885 546.63 342.044 546.61 358.344 L 518.898 358.384 L 518.912 344.217 C 516.269 347.025 513.814 349.592 510.673 351.856 C 500.125 359.371 487.038 362.422 474.254 360.346 C 462.951 358.471 455.593 353.378 449.05 344.261 C 447.518 341.38 446.307 338.34 445.437 335.195 C 435.912 300.116 472.73 283.498 501.324 288.939 C 505.133 289.664 515.326 291.872 518.385 291.065 L 519.281 288.994 C 519.16 286.04 518.786 284.783 517.845 282.042 C 509.068 256.473 480.254 266.647 465.548 279.176 C 460.79 272.76 455.998 266.37 451.172 260.006 C 465.65 248.194 473.586 244.732 491.976 242.76 Z" style="stroke-width: 1;" transform="matrix(1, 0, 0, 1, 0, 5.684341886080802e-14)"/>
  <path fill="rgb(250,250,250)" d="M 493.155 307.681 C 502.787 307.055 509.398 308.883 518.588 311.204 C 518.601 315.248 518.34 319.943 518.219 324.044 C 512.193 333.944 509.55 336.409 498.327 339.956 C 465.945 342.863 462.471 311.895 493.155 307.681 Z" style="stroke-width: 1;" transform="matrix(1, 0, 0, 1, 0, 5.684341886080802e-14)"/>
  <path fill="rgb(254,78,1)" d="M 605.695 242.645 C 626.715 241.186 640.415 247.353 656.375 260.333 C 651.385 266.239 646.395 272.888 641.625 279.026 C 629.765 268.399 614.905 262.335 598.735 268.921 C 596.115 269.989 595.695 271.983 594.965 274.359 C 598.865 297.512 657.925 285.959 658.315 321.225 C 658.655 352.725 636.635 359.653 609.795 361.215 C 587.495 359.218 578.545 356.061 561.645 341.226 L 578.895 322.489 C 581.805 325.683 584.185 328.24 587.675 330.835 C 596.385 337.314 607.315 340.072 618.055 338.502 C 623.125 337.723 627.435 335.061 630.255 330.9 C 636.135 321.87 619.575 316.447 613.585 314.936 C 596.945 310.93 570.855 305.054 567.895 284.377 C 564.225 258.713 584.145 246.162 605.695 242.645 Z" style="stroke-width: 1;" transform="matrix(1, 0, 0, 1, 0, 5.684341886080802e-14)"/>
  <path fill="rgb(2,49,115)" d="M 1278.91 242.74 C 1297.56 241.945 1312.52 248.699 1326.34 260.516 C 1320.96 266.45 1315.91 273.156 1310.98 279.498 C 1303.13 271.723 1297.64 268.452 1286.8 266.462 C 1281.69 265.525 1263.56 266.715 1265.27 274.29 C 1271.44 294.897 1304.71 287.938 1319.78 303.532 C 1331.89 316.077 1330.6 335.17 1319.17 348.024 C 1310.33 357.978 1293.36 360.791 1280.1 361.032 C 1259.41 359.462 1247.88 355.9 1232.91 340.701 C 1238.44 334.958 1243.78 328.762 1249.07 322.775 C 1259.58 333.665 1268.99 339.791 1285.03 339.136 C 1291.04 338.89 1303.15 332.894 1301.59 326.432 C 1298.88 315.248 1273.48 312.671 1264.1 309.173 C 1252.72 305.525 1238.46 296.175 1237.59 282.604 C 1235.84 255.684 1256.62 245.103 1278.91 242.74 Z" style="stroke-width: 1;" transform="matrix(1, 0, 0, 1, 0, 5.684341886080802e-14)"/>
  <path fill="rgb(50,50,50)" d="M 1428.88 256.645 C 1431.27 256.525 1433.64 256.445 1436.03 256.404 C 1462.39 256.034 1474.98 272.108 1474.84 297.311 C 1474.71 317.577 1474.71 337.986 1474.59 358.266 L 1458.02 358.332 L 1458.14 344.778 C 1441.35 364.362 1410.61 367.714 1394.89 345.366 C 1389.56 333.924 1388.69 319.743 1398.72 310.626 C 1414.02 296.734 1438.62 298.57 1457.82 299.036 C 1457.74 296.859 1457.87 291.85 1457.39 289.893 C 1450.56 261.548 1422.41 269.19 1406.68 283.278 L 1397.07 272.33 C 1406.63 262.252 1415.59 258.667 1428.88 256.645 Z" style="stroke-width: 1;" transform="matrix(1, 0, 0, 1, 0, 5.684341886080802e-14)"/>
  <path fill="rgb(250,250,250)" d="M 1430.49 311.567 C 1440.05 310.938 1448.64 311.334 1458.17 311.844 C 1458.46 331.187 1456.56 340.007 1437.45 346.719 C 1426.7 348.594 1411.37 346.941 1408.49 334.084 C 1407.59 329.998 1408.36 325.718 1410.63 322.209 C 1415.41 314.814 1422.54 313.158 1430.49 311.567 Z" style="stroke-width: 1;" transform="matrix(1, 0, 0, 1, 0, 5.684341886080802e-14)"/>
  <path fill="rgb(254,78,1)" d="M 685.755 212.796 C 694.745 212.553 704.465 212.743 713.515 212.747 L 713.775 245.38 L 740.455 245.351 L 740.395 269.081 L 713.755 269.182 C 713.785 285.462 711.865 309.077 714.245 325.054 C 716.185 338.138 730.065 335.35 739.945 332.306 C 740.985 338.916 741.985 345.531 742.955 352.152 C 743.325 353.606 743.085 353.706 742.715 355.267 C 728.315 366.9 689.645 361.827 687.015 337.311 C 684.565 314.471 685.625 292.089 685.775 269.115 C 680.055 268.834 673.485 268.87 667.705 268.77 C 667.445 261.102 667.635 253.126 667.715 245.429 L 685.335 245.246 L 685.755 212.796 Z" style="stroke-width: 1;" transform="matrix(1, 0, 0, 1, 0, 5.684341886080802e-14)"/>
  <path fill="rgb(254,78,1)" d="M 815.965 243.553 C 820.785 243.233 822.135 242.391 826.095 244.251 C 830.045 249.539 827.815 263.022 827.735 271.324 C 789.395 270.888 789.005 289.878 789.565 322.412 C 789.775 334.049 789.655 346.547 789.715 358.249 C 784.305 358.314 763.805 359.668 761.075 356.438 C 761.255 319.617 760.655 282.25 761.365 245.494 L 789.335 245.447 L 789.315 263.668 C 797.545 251.17 802.495 247.847 815.965 243.553 Z" style="stroke-width: 1;" transform="matrix(1, 0, 0, 1, 0, 5.684341886080802e-14)"/>
  <path fill="rgb(254,78,1)" d="M 122.761 -30.877 C 125.874 -28.209 127.894 -6.622 134.362 2.17 C 145.119 16.789 160.889 20.998 177.561 24.337 C 141.451 33.087 132.595 41.138 123.838 77.815 L 123.175 78.016 C 121.811 76.264 120.499 69.797 119.852 67.347 C 111.937 37.378 98.635 30.899 69.919 24.363 C 108.165 15.855 114.673 7.005 122.761 -30.877 Z" style="stroke-width: 1;" transform="matrix(1, 0, 0, 1, 0, 5.684341886080802e-14)"/>
  <path fill="rgb(254,78,1)" d="M 202.905 67.714 C 204.019 70.012 205.372 76.973 206.159 79.837 C 213.017 104.778 224.159 108.776 247.738 114.284 C 214.112 122.005 211.173 129.994 202.999 161.2 C 192.825 127.803 193.681 123.297 156.81 114.344 C 190.073 106.946 194.677 99.813 202.905 67.714 Z" style="stroke-width: 1;" transform="matrix(1, 0, 0, 1, 0, 5.684341886080802e-14)"/>
  <path fill="rgb(50,50,50)" d="M 1501.48 258.336 L 1519.13 258.348 L 1519.12 358.327 L 1501.4 358.256 L 1501.48 258.336 Z" style="stroke-width: 1;" transform="matrix(1, 0, 0, 1, 0, 5.684341886080802e-14)"/>
  <path fill="rgb(254,78,1)" d="M 46.776 79.99 C 49.466 81.89 51.505 93.708 53.666 97.266 C 57.73 103.96 69.156 106.32 76.43 108.34 C 57.483 112.184 53.78 116.022 48.37 134.078 L 46.884 134.006 C 41.144 114.386 38.721 113.385 19.023 108.261 C 39.258 102.701 42.596 100.742 46.776 79.99 Z" style="stroke-width: 1;" transform="matrix(1, 0, 0, 1, 0, 5.684341886080802e-14)"/>
  <path fill="rgb(50,50,50)" d="M 1355.8 335.056 C 1360.14 333.376 1365.07 334.168 1368.67 337.129 C 1372.29 340.089 1374.03 344.762 1373.22 349.361 C 1372.43 353.96 1369.22 357.776 1364.84 359.351 C 1358.14 361.746 1350.79 358.322 1348.31 351.669 C 1345.84 345.016 1349.16 337.61 1355.8 335.056 Z" style="stroke-width: 1;" transform="matrix(1, 0, 0, 1, 0, 5.684341886080802e-14)"/>
  <path fill="rgb(50,50,50)" d="M 1506.42 217.961 C 1512.15 215.671 1518.66 218.388 1521.06 224.071 C 1523.45 229.754 1520.87 236.31 1515.22 238.814 C 1511.48 240.476 1507.13 239.987 1503.86 237.537 C 1500.58 235.086 1498.88 231.055 1499.41 226.996 C 1499.94 222.936 1502.63 219.482 1506.42 217.961 Z" style="stroke-width: 1;" transform="matrix(1, 0, 0, 1, 0, 5.684341886080802e-14)"/>
</svg>